<?xml version="1.0" encoding="UTF-8"?><svg xmlns="http://www.w3.org/2000/svg" xmlns:xlink="http://www.w3.org/1999/xlink" height="128.8" preserveAspectRatio="xMidYMid meet" version="1.0" viewBox="4.0 -0.8 120.0 128.8" width="120.0" zoomAndPan="magnify"><g id="change1_1"><path d="M104,32.1l-6,4.3c-0.9,0.6-1.1,1.9-0.5,2.8c0.4,0.6,1,0.8,1.6,0.8c0.4,0,0.8-0.1,1.1-0.4l6-4.3c0.9-0.6,1.1-1.9,0.5-2.8 C106.1,31.7,104.9,31.5,104,32.1z" fill="inherit"/></g><g id="change1_2"><path d="M121,72.1V54c0-5.5-4.4-10-9.9-10H13.9C8.4,44,4,48.5,4,54v64c0,5.5,4.4,10,9.9,10h97.2c5.5,0,9.9-4.5,9.9-10V99.9 c1.7-0.4,3-2,3-3.9V76C124,74.1,122.7,72.6,121,72.1z M120,76v20H88.3c-3.3,0-6-2.7-6-6v-8c0-3.3,2.7-6,6-6H120z M111.1,124H13.9 c-3.3,0-6-2.7-6-6V54c0-3.3,2.7-6,6-6h97.2c3.3,0,6,2.7,6,6v18H88.3c-5.5,0-9.9,4.5-9.9,10v8c0,5.5,4.4,10,9.9,10h28.8v18 C117.1,121.3,114.4,124,111.1,124z" fill="inherit"/></g><g id="change1_3"><circle cx="90.5" cy="86" fill="inherit" r="2"/></g><g id="change1_4"><path d="M74.2,4.4C74.5,4.1,74.9,4,75.4,4C76,4,76.6,4.3,77,4.8L78.6,7l-46,33h6.8L89,4.4C89.4,4.1,89.8,4,90.2,4 c0.6,0,1.2,0.3,1.6,0.8l4.1,5.6L55.2,40H62l36.3-26.3l18.4,25.3c0.3,0.4,0.4,0.9,0.3,1.4c0,0.3-0.2,0.6-0.3,0.8 c1.2,0.5,2.4,1.3,3.4,2.1c0.4-0.7,0.8-1.5,0.9-2.3c0.3-1.6-0.1-3.2-1.1-4.4L95.1,2.5c-1.9-2.7-5.7-3.3-8.3-1.3l-4.9,3.5l-1.6-2.2 c-1.9-2.7-5.7-3.3-8.3-1.3L17.7,40h6.8L74.2,4.4z" fill="inherit"/></g></svg>